# xmcd CD database file
#
# Track frame offsets:
#	150
#	16936
#	36126
#	59265
#	86630
#	102999
#	115645
#	134851
#	154897
#
# Disc length: 2320 seconds
#
# Revision: 0
# Processed by: cddbd v1.5.1PL2 Copyright (c) Steve Scherf et al.
# Submitted via: CDex 1.51
#
DISCID=73090e09
DTITLE=Various Artist - YOUR HEART ONLY
DYEAR=1900
DGENRE=Pop
TTITLE0=岩間沙織/Light
TTITLE1=奥川希美/太陽のかけら
TTITLE2=田中恵理/Can't find the puzzles
TTITLE3=竹田有希/声に出せない My Love
TTITLE4=治久丸華代/ハートフルラブコメディー
TTITLE5=森咲里香/Ball
TTITLE6=鷲見麻有/傷痕 flash back
TTITLE7=岡元あつこ/Live
TTITLE8=穴井夕子/Magic
EXTD=
EXTT0=
EXTT1=
EXTT2=
EXTT3=
EXTT4=
EXTT5=
EXTT6=
EXTT7=
EXTT8=
PLAYORDER=
